<svg width="36" height="36" viewBox="0 0 9 9" shape-rendering="crispEdges" xmlns="http://www.w3.org/2000/svg">
	<title>Omid Saffari Labs</title>
	<style>
		rect { fill: #0a0e14 }
		@media (prefers-color-scheme: dark) { rect { fill: #f1f5f9 } }
	</style>
	<rect x="3" y="0" width="1" height="1"/>
	<rect x="4" y="0" width="1" height="1"/>
	<rect x="5" y="0" width="1" height="1"/>
	<rect x="1" y="1" width="1" height="1"/>
	<rect x="2" y="1" width="1" height="1"/>
	<rect x="6" y="1" width="1" height="1"/>
	<rect x="7" y="1" width="1" height="1"/>
	<rect x="1" y="2" width="1" height="1"/>
	<rect x="7" y="2" width="1" height="1"/>
	<rect x="0" y="3" width="1" height="1"/>
	<rect x="8" y="3" width="1" height="1"/>
	<rect x="0" y="4" width="1" height="1"/>
	<rect x="8" y="4" width="1" height="1"/>
	<rect x="0" y="5" width="1" height="1"/>
	<rect x="8" y="5" width="1" height="1"/>
	<rect x="1" y="6" width="1" height="1"/>
	<rect x="7" y="6" width="1" height="1"/>
	<rect x="1" y="7" width="1" height="1"/>
	<rect x="2" y="7" width="1" height="1"/>
	<rect x="6" y="7" width="1" height="1"/>
	<rect x="7" y="7" width="1" height="1"/>
	<rect x="3" y="8" width="1" height="1"/>
	<rect x="4" y="8" width="1" height="1"/>
	<rect x="5" y="8" width="1" height="1"/>
</svg>
